<?xml version="1.0" encoding="utf-8"?>
<!-- Generator: Adobe Illustrator 19.2.1, SVG Export Plug-In . SVG Version: 6.00 Build 0)  -->
<svg version="1.1" id="Layer_2" xmlns="http://www.w3.org/2000/svg" xmlns:xlink="http://www.w3.org/1999/xlink" x="0px" y="0px"
	 viewBox="0 0 40 40" style="enable-background:new 0 0 40 40;" xml:space="preserve">
<style type="text/css">
	.st0{fill:#FFFFFF;}
</style>
<circle class="st0" cx="20" cy="20" r="19"/>
<path d="M25.6,10.2c-3,0-5.4,2.5-5.4,5.4c0,0.5,0.1,0.8,0.2,1.3c-4.5-0.3-8.6-2.5-11.2-5.7c-0.5,0.8-0.7,1.7-0.7,2.7
	c0,1.9,0.9,3.5,2.4,4.5c-0.9,0-1.7-0.3-2.5-0.6c0,0,0,0,0,0.1c0,2.6,1.8,4.8,4.4,5.3c-0.5,0.1-0.9,0.2-1.5,0.2c-0.4,0-0.7,0-1-0.1
	c0.7,2.2,2.6,3.7,5,3.7c-1.8,1.5-4.2,2.3-6.7,2.3c-0.5,0-0.9,0-1.3-0.1c2.4,1.5,5.2,2.5,8.3,2.5c10,0,15.5-8.2,15.5-15.3
	c0-0.3,0-0.5,0-0.7c1.1-0.7,2-1.7,2.7-2.8c-1,0.5-2,0.7-3.1,0.8c1.1-0.6,2-1.7,2.4-3c-1,0.6-2.2,1.1-3.5,1.3
	C28.6,10.9,27.2,10.2,25.6,10.2"/>
</svg>
